<?xml version="1.0" standalone="no"?>
<!DOCTYPE svg PUBLIC "-//W3C//DTD SVG 20010904//EN"
 "http://www.w3.org/TR/2001/REC-SVG-20010904/DTD/svg10.dtd">
<svg version="1.0" xmlns="http://www.w3.org/2000/svg"
 width="150.000000pt" height="150.000000pt" viewBox="0 0 150.000000 150.000000"
 preserveAspectRatio="xMidYMid meet">
<metadata>
Created by potrace 1.11, written by Peter Selinger 2001-2013
</metadata>
<g transform="translate(0.000000,150.000000) scale(0.100000,-0.100000)"
fill="#000000" stroke="none">
<path d="M0 750 l0 -750 750 0 750 0 0 750 0 750 -750 0 -750 0 0 -750z m355
-453 c16 -48 32 -87 35 -87 3 0 15 32 26 70 17 56 19 70 8 70 -8 0 -14 7 -14
15 0 11 12 15 50 15 28 0 50 -4 50 -10 0 -5 -8 -10 -18 -10 -15 0 -26 -23 -53
-112 -23 -74 -40 -113 -49 -113 -9 0 -25 29 -40 70 -14 39 -30 79 -34 90 -6
16 -15 1 -40 -70 -19 -52 -39 -90 -46 -90 -8 0 -28 42 -49 107 -25 76 -40 108
-53 111 -39 11 -16 27 37 27 57 0 68 -6 36 -18 -18 -7 -18 -8 1 -72 11 -36 23
-69 28 -73 4 -5 20 29 35 75 15 45 30 87 32 91 12 21 30 -7 58 -86z"/>
</g>
</svg>
